<ttFont>
    <TTGlyph name=".notdef" xMin="102" yMin="0" xMax="922" yMax="1462">
      <contour>
        <pt x="102" y="0" on="1"/>
        <pt x="102" y="1462" on="1"/>
        <pt x="922" y="1462" on="1"/>
        <pt x="922" y="0" on="1"/>
      </contour>
      <contour>
        <pt x="201" y="98" on="1"/>
        <pt x="823" y="98" on="1"/>
        <pt x="823" y="1364" on="1"/>
        <pt x="201" y="1364" on="1"/>
      </contour>
    </TTGlyph>
    <TTGlyph name="glyph00004" xMin="220" yMin="0" xMax="1160" yMax="1760">
      <contour>
        <pt x="1160" y="1760" on="1"/>
        <pt x="1160" y="1415" on="1"/>
        <pt x="1160" y="1238" on="0"/>
        <pt x="967" y="1037" on="0"/>
        <pt x="775" y="1019" on="1"/>
        <pt x="775" y="0" on="1"/>
        <pt x="605" y="0" on="1"/>
        <pt x="605" y="1020" on="1"/>
        <pt x="413" y="1038" on="0"/>
        <pt x="220" y="1238" on="0"/>
        <pt x="220" y="1415" on="1"/>
        <pt x="220" y="1760" on="1"/>
        <pt x="390" y="1760" on="1"/>
        <pt x="390" y="1422" on="1"/>
        <pt x="390" y="1293" on="0"/>
        <pt x="537" y="1171" on="0"/>
        <pt x="690" y="1171" on="1"/>
        <pt x="844" y="1171" on="0"/>
        <pt x="990" y="1292" on="0"/>
        <pt x="990" y="1422" on="1"/>
        <pt x="990" y="1760" on="1"/>
      </contour>
    </TTGlyph>
    <TTGlyph name="glyph00005" xMin="100" yMin="0" xMax="729" yMax="1790">
      <contour>
        <pt x="559" y="1518" on="1"/>
        <pt x="175" y="1303" on="1"/>
        <pt x="100" y="1437" on="1"/>
        <pt x="729" y="1790" on="1"/>
        <pt x="729" y="0" on="1"/>
        <pt x="559" y="0" on="1"/>
      </contour>
    </TTGlyph>
    <TTGlyph name="glyph00006" xMin="220" yMin="0" xMax="1160" yMax="1760">
      <contour>
        <pt x="775" y="1176" on="1"/>
        <pt x="876" y="1190" on="0"/>
        <pt x="990" y="1305" on="0"/>
        <pt x="990" y="1422" on="1"/>
        <pt x="990" y="1760" on="1"/>
        <pt x="1160" y="1760" on="1"/>
        <pt x="1160" y="1415" on="1"/>
        <pt x="1160" y="1238" on="0"/>
        <pt x="967" y="1037" on="0"/>
        <pt x="775" y="1019" on="1"/>
        <pt x="775" y="0" on="1"/>
        <pt x="605" y="0" on="1"/>
        <pt x="605" y="1020" on="1"/>
        <pt x="413" y="1038" on="0"/>
        <pt x="220" y="1238" on="0"/>
        <pt x="220" y="1415" on="1"/>
        <pt x="220" y="1760" on="1"/>
        <pt x="390" y="1760" on="1"/>
        <pt x="390" y="1422" on="1"/>
        <pt x="390" y="1305" on="0"/>
        <pt x="504" y="1190" on="0"/>
        <pt x="605" y="1176" on="1"/>
        <pt x="605" y="1760" on="1"/>
        <pt x="775" y="1760" on="1"/>
      </contour>
    </TTGlyph>
    <TTGlyph name="glyph00007" xMin="120" yMin="-30" xMax="968" yMax="1790">
      <contour>
        <pt x="968" y="-30" on="1"/>
        <pt x="120" y="466" on="1"/>
        <pt x="120" y="538" on="1"/>
        <pt x="656" y="880" on="1"/>
        <pt x="120" y="1222" on="1"/>
        <pt x="120" y="1294" on="1"/>
        <pt x="968" y="1790" on="1"/>
      </contour>
      <contour>
        <pt x="364" y="499" on="1"/>
        <pt x="798" y="253" on="1"/>
        <pt x="798" y="789" on="1"/>
        <pt x="364" y="512" on="1"/>
      </contour>
      <contour>
        <pt x="364" y="1248" on="1"/>
        <pt x="798" y="970" on="1"/>
        <pt x="798" y="1507" on="1"/>
        <pt x="364" y="1261" on="1"/>
      </contour>
    </TTGlyph>
    <TTGlyph name="glyph00008" xMin="220" yMin="0" xMax="890" yMax="1760">
      <contour>
        <pt x="640" y="1204" on="1"/>
        <pt x="750" y="1174" on="0"/>
        <pt x="890" y="1000" on="0"/>
        <pt x="890" y="891" on="1"/>
        <pt x="890" y="784" on="0"/>
        <pt x="750" y="608" on="0"/>
        <pt x="640" y="579" on="1"/>
        <pt x="640" y="0" on="1"/>
        <pt x="470" y="0" on="1"/>
        <pt x="470" y="579" on="1"/>
        <pt x="361" y="608" on="0"/>
        <pt x="220" y="783" on="0"/>
        <pt x="220" y="891" on="1"/>
        <pt x="220" y="997" on="0"/>
        <pt x="359" y="1174" on="0"/>
        <pt x="470" y="1204" on="1"/>
        <pt x="470" y="1760" on="1"/>
        <pt x="640" y="1760" on="1"/>
      </contour>
      <contour>
        <pt x="385" y="892" on="1"/>
        <pt x="385" y="822" on="0"/>
        <pt x="487" y="723" on="0"/>
        <pt x="555" y="723" on="1"/>
        <pt x="625" y="723" on="0"/>
        <pt x="725" y="822" on="0"/>
        <pt x="725" y="892" on="1"/>
        <pt x="725" y="963" on="0"/>
        <pt x="625" y="1061" on="0"/>
        <pt x="555" y="1061" on="1"/>
        <pt x="487" y="1061" on="0"/>
        <pt x="385" y="963" on="0"/>
      </contour>
    </TTGlyph>
    <TTGlyph name="glyph00009" xMin="160" yMin="454" xMax="1124" yMax="1296">
      <contour>
        <pt x="160" y="873" on="1"/>
        <pt x="160" y="993" on="0"/>
        <pt x="279" y="1186" on="0"/>
        <pt x="498" y="1296" on="0"/>
        <pt x="640" y="1296" on="1"/>
        <pt x="782" y="1296" on="0"/>
        <pt x="1003" y="1187" on="0"/>
        <pt x="1124" y="993" on="0"/>
        <pt x="1124" y="873" on="1"/>
        <pt x="1124" y="754" on="0"/>
        <pt x="1002" y="561" on="0"/>
        <pt x="781" y="454" on="0"/>
        <pt x="640" y="454" on="1"/>
        <pt x="499" y="454" on="0"/>
        <pt x="280" y="561" on="0"/>
        <pt x="160" y="753" on="0"/>
      </contour>
      <contour>
        <pt x="325" y="874" on="1"/>
        <pt x="325" y="770" on="0"/>
        <pt x="448" y="631" on="0"/>
        <pt x="557" y="613" on="1"/>
        <pt x="557" y="1137" on="1"/>
        <pt x="445" y="1116" on="0"/>
        <pt x="325" y="976" on="0"/>
      </contour>
      <contour>
        <pt x="959" y="874" on="1"/>
        <pt x="959" y="977" on="0"/>
        <pt x="838" y="1115" on="0"/>
        <pt x="727" y="1136" on="1"/>
        <pt x="727" y="613" on="1"/>
        <pt x="838" y="633" on="0"/>
        <pt x="959" y="772" on="0"/>
      </contour>
    </TTGlyph>
    <TTGlyph name="glyph00010" xMin="160" yMin="-30" xMax="818" yMax="1790">
      <contour>
        <pt x="160" y="171" on="1"/>
        <pt x="578" y="483" on="1"/>
        <pt x="578" y="496" on="1"/>
        <pt x="160" y="850" on="1"/>
        <pt x="160" y="910" on="1"/>
        <pt x="578" y="1264" on="1"/>
        <pt x="578" y="1277" on="1"/>
        <pt x="160" y="1589" on="1"/>
        <pt x="160" y="1790" on="1"/>
        <pt x="818" y="1301" on="1"/>
        <pt x="818" y="1241" on="1"/>
        <pt x="388" y="880" on="1"/>
        <pt x="818" y="519" on="1"/>
        <pt x="818" y="459" on="1"/>
        <pt x="160" y="-30" on="1"/>
      </contour>
    </TTGlyph>
    <TTGlyph name="glyph00011" xMin="160" yMin="-30" xMax="806" yMax="1790">
      <contour>
        <pt x="160" y="1790" on="1"/>
        <pt x="352" y="1746" on="0"/>
        <pt x="646" y="1486" on="0"/>
        <pt x="806" y="1096" on="0"/>
        <pt x="806" y="877" on="1"/>
        <pt x="806" y="663" on="0"/>
        <pt x="643" y="269" on="0"/>
        <pt x="350" y="10" on="0"/>
        <pt x="160" y="-30" on="1"/>
        <pt x="160" y="130" on="1"/>
        <pt x="300" y="177" on="0"/>
        <pt x="512" y="390" on="0"/>
        <pt x="631" y="706" on="0"/>
        <pt x="631" y="877" on="1"/>
        <pt x="631" y="1051" on="0"/>
        <pt x="513" y="1369" on="0"/>
        <pt x="298" y="1586" on="0"/>
        <pt x="160" y="1625" on="1"/>
      </contour>
    </TTGlyph>
    <TTGlyph name="glyph00012" xMin="220" yMin="0" xMax="940" yMax="1760">
      <contour>
        <pt x="940" y="0" on="1"/>
        <pt x="770" y="0" on="1"/>
        <pt x="770" y="1610" on="1"/>
        <pt x="390" y="1610" on="1"/>
        <pt x="390" y="0" on="1"/>
        <pt x="220" y="0" on="1"/>
        <pt x="220" y="1760" on="1"/>
        <pt x="940" y="1760" on="1"/>
      </contour>
    </TTGlyph>
    <TTGlyph name="glyph00013" xMin="160" yMin="0" xMax="1160" yMax="1760">
      <contour>
        <pt x="660" y="1080" on="1"/>
        <pt x="975" y="1760" on="1"/>
        <pt x="1160" y="1760" on="1"/>
        <pt x="753" y="879" on="1"/>
        <pt x="1160" y="0" on="1"/>
        <pt x="974" y="0" on="1"/>
        <pt x="660" y="678" on="1"/>
        <pt x="346" y="0" on="1"/>
        <pt x="160" y="0" on="1"/>
        <pt x="567" y="879" on="1"/>
        <pt x="160" y="1760" on="1"/>
        <pt x="345" y="1760" on="1"/>
      </contour>
    </TTGlyph>
    <TTGlyph name="glyph00014" xMin="220" yMin="0" xMax="940" yMax="1760">
      <contour>
        <pt x="940" y="0" on="1"/>
        <pt x="770" y="0" on="1"/>
        <pt x="770" y="850" on="1"/>
        <pt x="390" y="850" on="1"/>
        <pt x="390" y="0" on="1"/>
        <pt x="220" y="0" on="1"/>
        <pt x="220" y="1000" on="1"/>
        <pt x="495" y="1000" on="1"/>
        <pt x="495" y="1760" on="1"/>
        <pt x="665" y="1760" on="1"/>
        <pt x="665" y="1000" on="1"/>
        <pt x="940" y="1000" on="1"/>
      </contour>
    </TTGlyph>
    <TTGlyph name="glyph00015" xMin="220" yMin="0" xMax="940" yMax="1760">
      <contour>
        <pt x="940" y="0" on="1"/>
        <pt x="770" y="0" on="1"/>
        <pt x="770" y="850" on="1"/>
        <pt x="390" y="850" on="1"/>
        <pt x="390" y="0" on="1"/>
        <pt x="220" y="0" on="1"/>
        <pt x="220" y="1000" on="1"/>
        <pt x="479" y="1760" on="1"/>
        <pt x="644" y="1760" on="1"/>
        <pt x="384" y="1000" on="1"/>
        <pt x="940" y="1000" on="1"/>
      </contour>
    </TTGlyph>
    <TTGlyph name="glyph00016" xMin="220" yMin="0" xMax="800" yMax="1760">
      <contour>
        <pt x="390" y="1040" on="1"/>
        <pt x="800" y="1040" on="1"/>
        <pt x="800" y="0" on="1"/>
        <pt x="630" y="0" on="1"/>
        <pt x="630" y="890" on="1"/>
        <pt x="220" y="890" on="1"/>
        <pt x="220" y="1760" on="1"/>
        <pt x="390" y="1760" on="1"/>
      </contour>
    </TTGlyph>
    <TTGlyph name="glyph00017" xMin="220" yMin="0" xMax="1160" yMax="1760">
      <contour>
        <pt x="1160" y="1760" on="1"/>
        <pt x="1160" y="1415" on="1"/>
        <pt x="1160" y="1238" on="0"/>
        <pt x="967" y="1038" on="0"/>
        <pt x="775" y="1020" on="1"/>
        <pt x="775" y="650" on="1"/>
        <pt x="1125" y="650" on="1"/>
        <pt x="1125" y="0" on="1"/>
        <pt x="955" y="0" on="1"/>
        <pt x="955" y="500" on="1"/>
        <pt x="605" y="500" on="1"/>
        <pt x="605" y="1020" on="1"/>
        <pt x="413" y="1038" on="0"/>
        <pt x="220" y="1238" on="0"/>
        <pt x="220" y="1415" on="1"/>
        <pt x="220" y="1760" on="1"/>
        <pt x="390" y="1760" on="1"/>
        <pt x="390" y="1422" on="1"/>
        <pt x="390" y="1293" on="0"/>
        <pt x="537" y="1171" on="0"/>
        <pt x="690" y="1171" on="1"/>
        <pt x="844" y="1171" on="0"/>
        <pt x="990" y="1292" on="0"/>
        <pt x="990" y="1422" on="1"/>
        <pt x="990" y="1760" on="1"/>
      </contour>
    </TTGlyph>
    <TTGlyph name="glyph00018" xMin="220" yMin="0" xMax="1160" yMax="1790">
      <contour>
        <pt x="990" y="0" on="1"/>
        <pt x="990" y="338" on="1"/>
        <pt x="990" y="553" on="0"/>
        <pt x="775" y="583" on="1"/>
        <pt x="775" y="0" on="1"/>
        <pt x="605" y="0" on="1"/>
        <pt x="605" y="583" on="1"/>
        <pt x="390" y="553" on="0"/>
        <pt x="390" y="338" on="1"/>
        <pt x="390" y="0" on="1"/>
        <pt x="220" y="0" on="1"/>
        <pt x="220" y="345" on="1"/>
        <pt x="220" y="522" on="0"/>
        <pt x="413" y="722" on="0"/>
        <pt x="605" y="740" on="1"/>
        <pt x="605" y="1153" on="1"/>
        <pt x="496" y="1182" on="0"/>
        <pt x="355" y="1357" on="0"/>
        <pt x="355" y="1465" on="1"/>
        <pt x="355" y="1595" on="0"/>
        <pt x="553" y="1790" on="0"/>
        <pt x="690" y="1790" on="1"/>
        <pt x="777" y="1790" on="0"/>
        <pt x="933" y="1703" on="0"/>
        <pt x="1025" y="1551" on="0"/>
        <pt x="1025" y="1465" on="1"/>
        <pt x="1025" y="1358" on="0"/>
        <pt x="885" y="1182" on="0"/>
        <pt x="775" y="1153" on="1"/>
        <pt x="775" y="740" on="1"/>
        <pt x="967" y="722" on="0"/>
        <pt x="1160" y="522" on="0"/>
        <pt x="1160" y="345" on="1"/>
        <pt x="1160" y="0" on="1"/>
      </contour>
      <contour>
        <pt x="520" y="1466" on="1"/>
        <pt x="520" y="1396" on="0"/>
        <pt x="622" y="1297" on="0"/>
        <pt x="690" y="1297" on="1"/>
        <pt x="760" y="1297" on="0"/>
        <pt x="860" y="1396" on="0"/>
        <pt x="860" y="1466" on="1"/>
        <pt x="860" y="1537" on="0"/>
        <pt x="760" y="1635" on="0"/>
        <pt x="690" y="1635" on="1"/>
        <pt x="622" y="1635" on="0"/>
        <pt x="520" y="1537" on="0"/>
      </contour>
    </TTGlyph>
    <TTGlyph name="glyph00019" xMin="160" yMin="0" xMax="955" yMax="1761">
      <contour>
        <pt x="655" y="440" on="1"/>
        <pt x="955" y="0" on="1"/>
        <pt x="760" y="0" on="1"/>
        <pt x="557" y="297" on="1"/>
        <pt x="355" y="0" on="1"/>
        <pt x="160" y="0" on="1"/>
        <pt x="460" y="440" on="1"/>
        <pt x="160" y="880" on="1"/>
        <pt x="460" y="1320" on="1"/>
        <pt x="160" y="1761" on="1"/>
        <pt x="355" y="1761" on="1"/>
        <pt x="557" y="1463" on="1"/>
        <pt x="760" y="1761" on="1"/>
        <pt x="955" y="1761" on="1"/>
        <pt x="655" y="1320" on="1"/>
        <pt x="955" y="880" on="1"/>
      </contour>
      <contour>
        <pt x="557" y="1177" on="1"/>
        <pt x="355" y="880" on="1"/>
        <pt x="557" y="583" on="1"/>
        <pt x="759" y="880" on="1"/>
      </contour>
    </TTGlyph>
    <TTGlyph name="glyph00020" xMin="160" yMin="0" xMax="1123" yMax="1760">
      <contour>
        <pt x="674" y="0" on="1"/>
        <pt x="609" y="0" on="1"/>
        <pt x="160" y="880" on="1"/>
        <pt x="609" y="1760" on="1"/>
        <pt x="674" y="1760" on="1"/>
        <pt x="1123" y="880" on="1"/>
      </contour>
      <contour>
        <pt x="641" y="1466" on="1"/>
        <pt x="354" y="880" on="1"/>
        <pt x="641" y="294" on="1"/>
        <pt x="929" y="880" on="1"/>
      </contour>
    </TTGlyph>
    <TTGlyph name="glyph00021" xMin="220" yMin="0" xMax="940" yMax="1760">
      <contour>
        <pt x="940" y="0" on="1"/>
        <pt x="770" y="0" on="1"/>
        <pt x="770" y="850" on="1"/>
        <pt x="390" y="850" on="1"/>
        <pt x="390" y="0" on="1"/>
        <pt x="220" y="0" on="1"/>
        <pt x="220" y="1000" on="1"/>
        <pt x="495" y="1000" on="1"/>
        <pt x="495" y="1273" on="1"/>
        <pt x="220" y="1273" on="1"/>
        <pt x="220" y="1760" on="1"/>
        <pt x="390" y="1760" on="1"/>
        <pt x="390" y="1423" on="1"/>
        <pt x="665" y="1423" on="1"/>
        <pt x="665" y="1000" on="1"/>
        <pt x="940" y="1000" on="1"/>
      </contour>
    </TTGlyph>
    <TTGlyph name="glyph00022" xMin="160" yMin="558" xMax="830" yMax="1206">
      <contour>
        <pt x="160" y="881" on="1"/>
        <pt x="160" y="1011" on="0"/>
        <pt x="358" y="1206" on="0"/>
        <pt x="495" y="1206" on="1"/>
        <pt x="582" y="1206" on="0"/>
        <pt x="738" y="1119" on="0"/>
        <pt x="830" y="967" on="0"/>
        <pt x="830" y="881" on="1"/>
        <pt x="830" y="795" on="0"/>
        <pt x="738" y="645" on="0"/>
        <pt x="583" y="558" on="0"/>
        <pt x="495" y="558" on="1"/>
        <pt x="408" y="558" on="0"/>
        <pt x="253" y="645" on="0"/>
        <pt x="160" y="796" on="0"/>
      </contour>
      <contour>
        <pt x="325" y="882" on="1"/>
        <pt x="325" y="812" on="0"/>
        <pt x="427" y="713" on="0"/>
        <pt x="495" y="713" on="1"/>
        <pt x="565" y="713" on="0"/>
        <pt x="665" y="812" on="0"/>
        <pt x="665" y="882" on="1"/>
        <pt x="665" y="953" on="0"/>
        <pt x="565" y="1051" on="0"/>
        <pt x="495" y="1051" on="1"/>
        <pt x="427" y="1051" on="0"/>
        <pt x="325" y="953" on="0"/>
      </contour>
    </TTGlyph>
    <TTGlyph name="glyph00023" xMin="220" yMin="0" xMax="940" yMax="1760">
      <contour>
        <pt x="940" y="0" on="1"/>
        <pt x="220" y="0" on="1"/>
        <pt x="220" y="1760" on="1"/>
        <pt x="940" y="1760" on="1"/>
      </contour>
      <contour>
        <pt x="390" y="150" on="1"/>
        <pt x="770" y="150" on="1"/>
        <pt x="770" y="830" on="1"/>
        <pt x="390" y="830" on="1"/>
      </contour>
      <contour>
        <pt x="390" y="980" on="1"/>
        <pt x="770" y="980" on="1"/>
        <pt x="770" y="1610" on="1"/>
        <pt x="390" y="1610" on="1"/>
      </contour>
    </TTGlyph>
    <TTGlyph name="glyph00024" xMin="120" yMin="0" xMax="765" yMax="1760">
      <contour>
        <pt x="120" y="1760" on="1"/>
        <pt x="765" y="1760" on="1"/>
        <pt x="765" y="0" on="1"/>
        <pt x="595" y="0" on="1"/>
        <pt x="595" y="1610" on="1"/>
        <pt x="120" y="1610" on="1"/>
      </contour>
    </TTGlyph>
    <TTGlyph name="glyph00025" xMin="120" yMin="0" xMax="758" yMax="1760">
      <contour>
        <pt x="758" y="0" on="1"/>
        <pt x="588" y="0" on="1"/>
        <pt x="588" y="699" on="1"/>
        <pt x="175" y="413" on="1"/>
        <pt x="120" y="413" on="1"/>
        <pt x="120" y="1396" on="1"/>
        <pt x="175" y="1396" on="1"/>
        <pt x="588" y="1110" on="1"/>
        <pt x="588" y="1760" on="1"/>
        <pt x="758" y="1760" on="1"/>
      </contour>
      <contour>
        <pt x="290" y="1124" on="1"/>
        <pt x="290" y="685" on="1"/>
        <pt x="588" y="900" on="1"/>
        <pt x="588" y="913" on="1"/>
      </contour>
    </TTGlyph>
    <TTGlyph name="glyph00026" xMin="100" yMin="0" xMax="1169" yMax="1760">
      <contour>
        <pt x="100" y="1216" on="1"/>
        <pt x="449" y="1760" on="1"/>
        <pt x="1169" y="1760" on="1"/>
        <pt x="1169" y="0" on="1"/>
        <pt x="999" y="0" on="1"/>
        <pt x="999" y="1610" on="1"/>
        <pt x="619" y="1610" on="1"/>
        <pt x="619" y="0" on="1"/>
        <pt x="449" y="0" on="1"/>
        <pt x="449" y="1463" on="1"/>
        <pt x="243" y="1139" on="1"/>
      </contour>
    </TTGlyph>
    <TTGlyph name="glyph00027" xMin="220" yMin="0" xMax="1190" yMax="1760">
      <contour>
        <pt x="1190" y="0" on="1"/>
        <pt x="220" y="0" on="1"/>
        <pt x="220" y="1760" on="1"/>
        <pt x="1190" y="1760" on="1"/>
      </contour>
      <contour>
        <pt x="790" y="151" on="1"/>
        <pt x="1020" y="151" on="1"/>
        <pt x="1020" y="1610" on="1"/>
        <pt x="790" y="1610" on="1"/>
      </contour>
      <contour>
        <pt x="390" y="151" on="1"/>
        <pt x="620" y="151" on="1"/>
        <pt x="620" y="1610" on="1"/>
        <pt x="390" y="1610" on="1"/>
      </contour>
    </TTGlyph>
    <TTGlyph name="glyph00028" xMin="160" yMin="0" xMax="936" yMax="1761">
      <contour>
        <pt x="936" y="0" on="1"/>
        <pt x="160" y="0" on="1"/>
        <pt x="471" y="889" on="1"/>
        <pt x="160" y="1761" on="1"/>
        <pt x="936" y="1761" on="1"/>
        <pt x="624" y="889" on="1"/>
      </contour>
      <contour>
        <pt x="703" y="151" on="1"/>
        <pt x="548" y="693" on="1"/>
        <pt x="392" y="151" on="1"/>
      </contour>
      <contour>
        <pt x="548" y="1126" on="1"/>
        <pt x="700" y="1610" on="1"/>
        <pt x="395" y="1610" on="1"/>
      </contour>
    </TTGlyph>
    <TTGlyph name="glyph00029" xMin="220" yMin="0" xMax="940" yMax="1760">
      <contour>
        <pt x="940" y="0" on="1"/>
        <pt x="770" y="0" on="1"/>
        <pt x="770" y="530" on="1"/>
        <pt x="390" y="530" on="1"/>
        <pt x="390" y="0" on="1"/>
        <pt x="220" y="0" on="1"/>
        <pt x="220" y="1760" on="1"/>
        <pt x="390" y="1760" on="1"/>
        <pt x="390" y="1280" on="1"/>
        <pt x="770" y="1280" on="1"/>
        <pt x="770" y="1760" on="1"/>
        <pt x="940" y="1760" on="1"/>
      </contour>
      <contour>
        <pt x="390" y="680" on="1"/>
        <pt x="770" y="680" on="1"/>
        <pt x="770" y="1130" on="1"/>
        <pt x="390" y="1130" on="1"/>
      </contour>
    </TTGlyph>
    <TTGlyph name="glyph00030" xMin="220" yMin="0" xMax="890" yMax="1790">
      <contour>
        <pt x="220" y="1465" on="1"/>
        <pt x="220" y="1595" on="0"/>
        <pt x="418" y="1790" on="0"/>
        <pt x="555" y="1790" on="1"/>
        <pt x="642" y="1790" on="0"/>
        <pt x="798" y="1703" on="0"/>
        <pt x="890" y="1551" on="0"/>
        <pt x="890" y="1465" on="1"/>
        <pt x="890" y="1358" on="0"/>
        <pt x="750" y="1182" on="0"/>
        <pt x="640" y="1153" on="1"/>
        <pt x="640" y="0" on="1"/>
        <pt x="470" y="0" on="1"/>
        <pt x="470" y="1153" on="1"/>
        <pt x="361" y="1182" on="0"/>
        <pt x="220" y="1357" on="0"/>
      </contour>
      <contour>
        <pt x="385" y="1466" on="1"/>
        <pt x="385" y="1396" on="0"/>
        <pt x="487" y="1297" on="0"/>
        <pt x="555" y="1297" on="1"/>
        <pt x="625" y="1297" on="0"/>
        <pt x="725" y="1396" on="0"/>
        <pt x="725" y="1466" on="1"/>
        <pt x="725" y="1537" on="0"/>
        <pt x="625" y="1635" on="0"/>
        <pt x="555" y="1635" on="1"/>
        <pt x="487" y="1635" on="0"/>
        <pt x="385" y="1537" on="0"/>
      </contour>
    </TTGlyph>
    <TTGlyph name="glyph00031" xMin="220" yMin="-30" xMax="890" yMax="1790">
      <contour>
        <pt x="220" y="293" on="1"/>
        <pt x="220" y="399" on="0"/>
        <pt x="359" y="576" on="0"/>
        <pt x="470" y="606" on="1"/>
        <pt x="470" y="1153" on="1"/>
        <pt x="361" y="1182" on="0"/>
        <pt x="220" y="1357" on="0"/>
        <pt x="220" y="1465" on="1"/>
        <pt x="220" y="1595" on="0"/>
        <pt x="418" y="1790" on="0"/>
        <pt x="555" y="1790" on="1"/>
        <pt x="642" y="1790" on="0"/>
        <pt x="798" y="1703" on="0"/>
        <pt x="890" y="1551" on="0"/>
        <pt x="890" y="1465" on="1"/>
        <pt x="890" y="1358" on="0"/>
        <pt x="750" y="1182" on="0"/>
        <pt x="640" y="1153" on="1"/>
        <pt x="640" y="606" on="1"/>
        <pt x="750" y="576" on="0"/>
        <pt x="890" y="402" on="0"/>
        <pt x="890" y="293" on="1"/>
        <pt x="890" y="207" on="0"/>
        <pt x="798" y="57" on="0"/>
        <pt x="643" y="-30" on="0"/>
        <pt x="555" y="-30" on="1"/>
        <pt x="468" y="-30" on="0"/>
        <pt x="313" y="57" on="0"/>
        <pt x="220" y="208" on="0"/>
      </contour>
      <contour>
        <pt x="385" y="294" on="1"/>
        <pt x="385" y="224" on="0"/>
        <pt x="487" y="125" on="0"/>
        <pt x="555" y="125" on="1"/>
        <pt x="625" y="125" on="0"/>
        <pt x="725" y="224" on="0"/>
        <pt x="725" y="294" on="1"/>
        <pt x="725" y="365" on="0"/>
        <pt x="625" y="463" on="0"/>
        <pt x="555" y="463" on="1"/>
        <pt x="487" y="463" on="0"/>
        <pt x="385" y="365" on="0"/>
      </contour>
      <contour>
        <pt x="385" y="1466" on="1"/>
        <pt x="385" y="1396" on="0"/>
        <pt x="487" y="1297" on="0"/>
        <pt x="555" y="1297" on="1"/>
        <pt x="625" y="1297" on="0"/>
        <pt x="725" y="1396" on="0"/>
        <pt x="725" y="1466" on="1"/>
        <pt x="725" y="1537" on="0"/>
        <pt x="625" y="1635" on="0"/>
        <pt x="555" y="1635" on="1"/>
        <pt x="487" y="1635" on="0"/>
        <pt x="385" y="1537" on="0"/>
      </contour>
    </TTGlyph>
    <TTGlyph name="glyph00032" xMin="120" yMin="0" xMax="1090" yMax="1790">
      <contour>
        <pt x="120" y="1465" on="1"/>
        <pt x="120" y="1595" on="0"/>
        <pt x="318" y="1790" on="0"/>
        <pt x="455" y="1790" on="1"/>
        <pt x="542" y="1790" on="0"/>
        <pt x="698" y="1703" on="0"/>
        <pt x="790" y="1551" on="0"/>
        <pt x="790" y="1465" on="1"/>
        <pt x="790" y="1358" on="0"/>
        <pt x="650" y="1182" on="0"/>
        <pt x="540" y="1153" on="1"/>
        <pt x="540" y="940" on="1"/>
        <pt x="1090" y="940" on="1"/>
        <pt x="1090" y="0" on="1"/>
        <pt x="920" y="0" on="1"/>
        <pt x="920" y="790" on="1"/>
        <pt x="540" y="790" on="1"/>
        <pt x="540" y="0" on="1"/>
        <pt x="370" y="0" on="1"/>
        <pt x="370" y="1153" on="1"/>
        <pt x="261" y="1182" on="0"/>
        <pt x="120" y="1357" on="0"/>
      </contour>
      <contour>
        <pt x="285" y="1466" on="1"/>
        <pt x="285" y="1396" on="0"/>
        <pt x="387" y="1297" on="0"/>
        <pt x="455" y="1297" on="1"/>
        <pt x="525" y="1297" on="0"/>
        <pt x="625" y="1396" on="0"/>
        <pt x="625" y="1466" on="1"/>
        <pt x="625" y="1537" on="0"/>
        <pt x="525" y="1635" on="0"/>
        <pt x="455" y="1635" on="1"/>
        <pt x="387" y="1635" on="0"/>
        <pt x="285" y="1537" on="0"/>
      </contour>
    </TTGlyph>
    <TTGlyph name="glyph00033" xMin="300" yMin="0" xMax="470" yMax="1760">
      <contour>
        <pt x="470" y="0" on="1"/>
        <pt x="300" y="0" on="1"/>
        <pt x="300" y="1760" on="1"/>
        <pt x="470" y="1760" on="1"/>
      </contour>
    </TTGlyph>
    <TTGlyph name="glyph00034" xMin="120" yMin="0" xMax="968" yMax="1790">
      <contour>
        <pt x="968" y="0" on="1"/>
        <pt x="798" y="0" on="1"/>
        <pt x="798" y="787" on="1"/>
        <pt x="120" y="1222" on="1"/>
        <pt x="120" y="1294" on="1"/>
        <pt x="968" y="1790" on="1"/>
      </contour>
      <contour>
        <pt x="364" y="1248" on="1"/>
        <pt x="798" y="972" on="1"/>
        <pt x="798" y="1507" on="1"/>
        <pt x="364" y="1261" on="1"/>
      </contour>
    </TTGlyph>
    <TTGlyph name="glyph00035" xMin="220" yMin="0" xMax="940" yMax="1760">
      <contour>
        <pt x="220" y="1760" on="1"/>
        <pt x="940" y="1760" on="1"/>
        <pt x="940" y="0" on="1"/>
        <pt x="220" y="0" on="1"/>
      </contour>
      <contour>
        <pt x="390" y="150" on="1"/>
        <pt x="770" y="150" on="1"/>
        <pt x="770" y="404" on="1"/>
        <pt x="390" y="404" on="1"/>
      </contour>
      <contour>
        <pt x="390" y="1358" on="1"/>
        <pt x="770" y="1358" on="1"/>
        <pt x="770" y="1610" on="1"/>
        <pt x="390" y="1610" on="1"/>
      </contour>
      <contour>
        <pt x="390" y="554" on="1"/>
        <pt x="770" y="554" on="1"/>
        <pt x="770" y="806" on="1"/>
        <pt x="390" y="806" on="1"/>
      </contour>
      <contour>
        <pt x="390" y="956" on="1"/>
        <pt x="770" y="956" on="1"/>
        <pt x="770" y="1208" on="1"/>
        <pt x="390" y="1208" on="1"/>
      </contour>
    </TTGlyph>
</ttFont>
